<svg xmlns="http://www.w3.org/2000/svg"  viewBox="0 0 50 50" width="100px" height="100px" clip-rule="evenodd"><path d="M 39.720703 2.9921875 L 39.46875 3 C 36.963626 3.0906231 34.419549 4.3936334 32.4375 6.3125 C 30.455451 8.2313666 29.011418 10.818076 29 13.621094 C 28.997848 14.189705 29.041083 14.817135 29.164062 15.453125 C 28.998576 15.226902 28.837473 14.989734 28.669922 14.769531 C 24.543215 9.3455603 17.973626 6 11.5 6 C 9.2397843 6 6.9124409 6.4570779 4.6777344 7.3320312 L 4.0957031 7.5605469 L 4.046875 8.1816406 C 4.0154907 8.5701565 4 8.9695031 4 9.375 C 4.0016 11.962498 4.6396758 14.966123 6.3652344 17.644531 C 8.090793 20.32294 10.926332 22.644034 15.136719 23.78125 C 18.770049 24.845328 21.296453 25.475531 23.974609 26.460938 C 24.507997 26.657083 25.011375 26.868338 25.501953 27.087891 C 24.831738 28.225254 23.995098 29.45012 22.927734 30.791016 L 22.925781 30.792969 L 22.923828 30.796875 C 20.47781 33.910941 18.024041 38.73023 18.001953 44.496094 C 17.998753 45.352868 18.048473 46.230615 18.162109 47.125 L 18.285156 48.101562 L 19.265625 47.992188 C 25.043372 47.348824 28.957065 44.788756 31.396484 41.769531 C 33.815303 38.775805 34.811951 35.387773 34.990234 32.876953 L 35 32.876953 L 35 32.777344 L 35 32.423828 C 40.417388 27.230624 45.577882 21.658486 45.994141 14.767578 L 45.994141 14.75 L 45.994141 14.732422 C 46.132419 9.0874624 43.388815 4.7998137 39.947266 3.1035156 L 39.720703 2.9921875 z M 39.296875 5.0664062 C 41.804225 6.4421073 44.102726 9.8555766 43.994141 14.65625 C 43.661113 20.095598 39.663782 24.959596 34.896484 29.679688 C 34.765894 28.191572 34.50979 26.775313 34.148438 25.429688 C 33.102193 20.090446 31.292969 15.728516 31.292969 15.728516 L 31.314453 15.779297 C 31.08304 15.149591 30.997274 14.354998 31 13.628906 C 31.0086 11.521924 32.147674 9.3749303 33.828125 7.7480469 C 35.43816 6.1893347 37.511229 5.2087572 39.296875 5.0664062 z M 11.5 8 C 17.276374 8 23.336785 11.06044 27.080078 15.980469 C 29.896484 19.681908 32.235086 24.152294 32.775391 29.666016 C 30.209686 27.434358 27.762798 25.723497 24.664062 24.583984 C 21.858132 23.551566 19.289407 22.913113 15.679688 21.855469 L 15.669922 21.851562 L 15.658203 21.849609 C 11.882624 20.829865 9.5230664 18.851888 8.046875 16.560547 C 6.5706836 14.269206 6.0013975 11.631502 6 9.375 C 6 9.2507633 6.0104665 9.1369763 6.0136719 9.015625 C 7.8405351 8.3735704 9.7074846 8 11.5 8 z M 27.289062 27.992188 C 29.220486 29.087785 30.970945 30.490367 33 32.425781 L 33 32.6875 C 32.860293 34.787366 31.976615 37.869493 29.841797 40.511719 C 27.857578 42.967549 24.749646 45.031231 20.080078 45.794922 C 20.051538 45.36369 20.000403 44.925248 20.001953 44.503906 C 20.021853 39.30873 22.267447 34.871258 24.492188 32.037109 L 24.496094 32.03125 C 25.644826 30.587595 26.555176 29.250652 27.289062 27.992188 z" clip-rule="evenodd"/></svg>